<?xml version="1.0" encoding="UTF-8" standalone="no"?>
<svg
   version="1.1"
   width="841.88977pt"
   height="595.27557pt"
   id="svg92"
   viewBox="0 0 841.88977 595.27557"
   sodipodi:docname="Fish Audio定稿.cdr"
   xmlns:inkscape="http://www.inkscape.org/namespaces/inkscape"
   xmlns:sodipodi="http://sodipodi.sourceforge.net/DTD/sodipodi-0.dtd"
   xmlns="http://www.w3.org/2000/svg"
   xmlns:svg="http://www.w3.org/2000/svg">
  <defs
     id="defs96" />
  <sodipodi:namedview
     id="namedview94"
     pagecolor="#ffffff"
     bordercolor="#000000"
     borderopacity="0.25"
     inkscape:showpageshadow="2"
     inkscape:pageopacity="0.0"
     inkscape:pagecheckerboard="0"
     inkscape:deskcolor="#d1d1d1"
     inkscape:document-units="pt" />
  <path
     d="M -0.015,0.2021 V 595.4777 H 841.8747 V 0.2021 Z"
     style="fill:none"
     id="path2" />
  <path
     d="m 524.8161,283.0572 h 10e-5 c 2.1259,0 3.8651,1.0793 3.8651,2.3983 v 8.171 c 0,1.3189 -1.7394,2.3983 -3.8651,2.3983 h -10e-5 c -2.1256,0 -3.8651,-1.0792 -3.8651,-2.3983 v -8.171 c 0,-1.3191 1.7393,-2.3983 3.8651,-2.3983 z"
     style="fill:#b1b3b4;fill-rule:evenodd"
     id="path4" />
  <path
     d="m 509.4574,286.2503 h 10e-5 c 2.1258,0 3.8651,1.0793 3.8651,2.3983 v 17.9874 c 0,1.319 -1.7395,2.3983 -3.8651,2.3983 h -10e-5 c -2.1257,0 -3.8652,-1.0792 -3.8652,-2.3983 v -17.9874 c 0,-1.3191 1.7393,-2.3983 3.8652,-2.3983 z"
     style="fill:#b1b3b4;fill-rule:evenodd"
     id="path6" />
  <path
     d="m 494.0985,289.9734 h 10e-5 c 2.1259,0 3.8651,1.0794 3.8651,2.3983 v 20.2185 c 0,1.3189 -1.7396,2.3983 -3.8651,2.3983 h -10e-5 c -2.1255,0 -3.8651,-1.0792 -3.8651,-2.3983 v -20.2185 c 0,-1.3191 1.7392,-2.3983 3.8651,-2.3983 z"
     style="fill:#b1b3b4;fill-rule:evenodd"
     id="path8" />
  <path
     d="m 478.7397,293.0549 h 10e-5 c 2.1259,0 3.8652,1.0793 3.8652,2.3983 v 19.9953 c 0,1.319 -1.7395,2.3983 -3.8652,2.3983 h -10e-5 c -2.1256,0 -3.8651,-1.0792 -3.8651,-2.3983 v -19.9953 c 0,-1.3191 1.7393,-2.3983 3.8651,-2.3983 z"
     style="fill:#b1b3b4;fill-rule:evenodd"
     id="path10" />
  <path
     d="m 463.3809,295.774 h 10e-5 c 2.1258,0 3.8651,1.0793 3.8651,2.3983 v 17.3182 c 0,1.3189 -1.7395,2.3983 -3.8651,2.3983 h -10e-5 c -2.1257,0 -3.8651,-1.0793 -3.8651,-2.3983 v -17.3182 c 0,-1.3191 1.7392,-2.3983 3.8651,-2.3983 z"
     style="fill:#b1b3b4;fill-rule:evenodd"
     id="path12" />
  <path
     d="m 448.0999,306.8175 h 1e-4 c 2.1259,0 3.8651,1.0795 3.8651,2.3983 v 5.4938 c 0,1.3188 -1.7397,2.3983 -3.8651,2.3983 h -1e-4 c -2.1254,0 -3.8651,-1.0792 -3.8651,-2.3983 v -5.4938 c 0,-1.3191 1.7393,-2.3983 3.8651,-2.3983 z"
     style="fill:#b1b3b4;fill-rule:evenodd"
     id="path14" />
  <path
     d="m 524.8161,261.0816 h 10e-5 c 2.1259,0 3.8651,1.0794 3.8651,2.3983 v 13.5254 c 0,1.3189 -1.7395,2.3983 -3.8651,2.3983 h -10e-5 c -2.1255,0 -3.8651,-1.0792 -3.8651,-2.3983 v -13.5254 c 0,-1.3191 1.7393,-2.3983 3.8651,-2.3983 z"
     style="fill:#000000;fill-rule:evenodd"
     id="path16" />
  <path
     d="m 509.4574,252.0041 h 10e-5 c 2.1258,0 3.8651,1.0794 3.8651,2.3983 v 24.1228 c 0,1.3189 -1.7396,2.3983 -3.8651,2.3983 h -10e-5 c -2.1256,0 -3.8652,-1.0792 -3.8652,-2.3983 v -24.1228 c 0,-1.319 1.7393,-2.3983 3.8652,-2.3983 z"
     style="fill:#000000;fill-rule:evenodd"
     id="path18" />
  <path
     d="m 494.0985,248.5879 h 10e-5 c 2.1259,0 3.8651,1.0795 3.8651,2.3983 v 31.4852 c 0,1.3188 -1.7397,2.3983 -3.8651,2.3983 h -10e-5 c -2.1254,0 -3.8651,-1.0792 -3.8651,-2.3983 v -31.4852 c 0,-1.3191 1.7392,-2.3983 3.8651,-2.3983 z"
     style="fill:#000000;fill-rule:evenodd"
     id="path20" />
  <path
     d="m 478.7397,247.0958 h 10e-5 c 2.1259,0 3.8652,1.0794 3.8652,2.3983 v 36.8396 c 0,1.3189 -1.7396,2.3983 -3.8652,2.3983 h -10e-5 c -2.1255,0 -3.8651,-1.0793 -3.8651,-2.3983 v -36.8396 c 0,-1.3191 1.7393,-2.3983 3.8651,-2.3983 z"
     style="fill:#000000;fill-rule:evenodd"
     id="path22" />
  <path
     d="m 463.3809,248.0301 h 10e-5 c 2.1258,0 3.8651,1.0794 3.8651,2.3983 v 37.3974 c 0,1.3189 -1.7396,2.3983 -3.8651,2.3983 h -10e-5 c -2.1256,0 -3.8651,-1.0792 -3.8651,-2.3983 v -37.3974 c 0,-1.3191 1.7392,-2.3983 3.8651,-2.3983 z"
     style="fill:#000000;fill-rule:evenodd"
     id="path24" />
  <path
     d="m 448.0999,250.3726 h 1e-4 c 2.1259,0 3.8651,1.0796 3.8651,2.3983 v 46.6562 c 0,1.3187 -1.7399,2.3983 -3.8651,2.3983 h -1e-4 c -2.1252,0 -3.8651,-1.0792 -3.8651,-2.3983 v -46.6562 c 0,-1.319 1.7393,-2.3983 3.8651,-2.3983 z"
     style="fill:#000000;fill-rule:evenodd"
     id="path26" />
  <path
     d="m 432.4233,254.3467 h 1e-4 c 2.1258,0 3.8651,1.0796 3.8651,2.3983 v 52.9029 c 0,1.3188 -1.7398,2.3983 -3.8651,2.3983 h -1e-4 c -2.1254,0 -3.8652,-1.0792 -3.8652,-2.3983 V 256.745 c 0,-1.319 1.7393,-2.3983 3.8652,-2.3983 z"
     style="fill:#000000;fill-rule:evenodd"
     id="path28" />
  <path
     d="m 417.0644,261.0816 h 1e-4 c 2.1259,0 3.8651,1.0796 3.8651,2.3983 v 50.8951 c 0,1.3187 -1.7399,2.3983 -3.8651,2.3983 h -1e-4 c -2.1252,0 -3.8651,-1.0792 -3.8651,-2.3983 v -50.8951 c 0,-1.319 1.7393,-2.3983 3.8651,-2.3983 z"
     style="fill:#000000;fill-rule:evenodd"
     id="path30" />
  <path
     d="m 401.7057,269.8522 h 1e-4 c 2.1258,0 3.8651,1.0795 3.8651,2.3983 v 44.3135 c 0,1.3188 -1.7397,2.3983 -3.8651,2.3983 h -1e-4 c -2.1255,0 -3.8652,-1.0792 -3.8652,-2.3983 v -44.3135 c 0,-1.3191 1.7393,-2.3983 3.8652,-2.3983 z"
     style="fill:#000000;fill-rule:evenodd"
     id="path32" />
  <path
     d="m 386.3468,275.9178 h 1e-4 c 2.1259,0 3.8651,1.0795 3.8651,2.3983 v 43.6443 c 0,1.3188 -1.7397,2.3983 -3.8651,2.3983 h -1e-4 c -2.1254,0 -3.8651,-1.0792 -3.8651,-2.3983 v -43.6443 c 0,-1.319 1.7393,-2.3983 3.8651,-2.3983 z"
     style="fill:#000000;fill-rule:evenodd"
     id="path34" />
  <path
     d="m 371.0658,280.9376 h 10e-5 c 2.1259,0 3.8651,1.0798 3.8651,2.3983 v 23.2305 c 0,1.3186 -1.7401,2.3983 -3.8651,2.3983 h -10e-5 c -2.125,0 -3.8651,-1.0792 -3.8651,-2.3983 v -23.2305 c 0,-1.319 1.7393,-2.3983 3.8651,-2.3983 z"
     style="fill:#000000;fill-rule:evenodd"
     id="path36" />
  <path
     d="m 355.2456,258.2928 h 10e-5 c 2.1258,0 3.8651,1.0798 3.8651,2.3983 v 32.3776 c 0,1.3184 -1.7403,2.3983 -3.8651,2.3983 h -10e-5 c -2.1249,0 -3.8652,-1.0792 -3.8652,-2.3983 v -32.3776 c 0,-1.3191 1.7393,-2.3983 3.8652,-2.3983 z"
     style="fill:#000000;fill-rule:evenodd"
     id="path38" />
  <path
     d="m 339.4493,260.4122 h 1e-4 c 2.1258,0 3.8651,1.0798 3.8651,2.3983 v 9.956 c 0,1.3185 -1.7402,2.3983 -3.8651,2.3983 h -1e-4 c -2.125,0 -3.8651,-1.0793 -3.8651,-2.3983 v -9.956 c 0,-1.3191 1.7392,-2.3983 3.8651,-2.3983 z"
     style="fill:#000000;fill-rule:evenodd"
     id="path40" />
  <path
     d="m 323.629,259.0736 h 10e-5 c 2.1259,0 3.8651,1.0798 3.8651,2.3983 v 4.4899 c 0,1.3185 -1.7401,2.3983 -3.8651,2.3983 h -10e-5 c -2.1249,0 -3.8651,-1.0792 -3.8651,-2.3983 v -4.4899 c 0,-1.3191 1.7393,-2.3983 3.8651,-2.3983 z"
     style="fill:#000000;fill-rule:evenodd"
     id="path42" />
  <path
     d="m 371.0658,255.2745 h 10e-5 c 2.1259,0 3.8651,1.0798 3.8651,2.3983 v 3.3743 c 0,1.3185 -1.7402,2.3983 -3.8651,2.3983 h -10e-5 c -2.1249,0 -3.8651,-1.0792 -3.8651,-2.3983 v -3.3743 c 0,-1.3191 1.7393,-2.3983 3.8651,-2.3983 z"
     style="fill:#000000;fill-rule:evenodd"
     id="path44" />
  <path
     d="m 355.173,351.1485 h 8.3368 v -2.9944 h -8.4423 v -4.4281 h 11.7206 v -3.0366 h -15.4076 v 17.9449 h 3.7925 z m 19.7009,-5.9255 h -3.8717 v 13.4113 h 3.8717 z m 0,-4.5336 h -3.8717 v 3.0787 h 3.8717 z m 16.0928,4.386 h -7.3481 c -2.95,0 -4.5568,1.898 -4.5568,4.0487 0,2.0033 0.8956,4.1332 4.8199,4.1332 h 2.9499 c 1.0273,0 2.0808,0.4216 2.0808,1.4125 v -0.0209 c -0.0527,0.9278 -1.0799,1.3707 -2.0808,1.3707 h -6.8478 v 2.6147 h 7.9541 c 2.6336,0 4.6353,-1.5604 4.6353,-3.88 v -0.0845 c 0,-2.3194 -1.5539,-4.1328 -4.6353,-4.1328 h -3.6611 c -0.8165,0 -1.4221,-0.6327 -1.4221,-1.3075 0,-0.6535 0.4739,-1.4127 1.58,-1.4127 h 6.532 z m 13.0374,3.1422 c 2.2913,0 2.739,0.9487 2.739,2.2141 v 8.2026 h 3.7138 v -8.8354 c 0,-2.2774 -1.9755,-4.5759 -5.8736,-4.5759 h -1.9753 c -0.8165,0 -1.5538,0.1056 -2.186,0.2742 v -4.8078 h -3.6874 v 17.9449 h 3.6874 v -8.2026 c 0,-1.2654 0.4477,-2.2141 2.7656,-2.2141 z m 28.4713,10.4167 h 3.9507 l -5.531,-17.9449 h -4.2929 l -5.742,17.9449 h 3.9772 l 3.7927,-12.7365 h 0.2107 z m 14.6967,-3.0155 c -2.3177,0 -2.713,-0.949 -2.713,-2.1929 V 345.223 H 440.64 v 8.8143 c 0,2.2774 1.9491,4.597 5.8734,4.597 h 1.6857 c 0.8956,0 1.7121,-0.1265 2.4494,-0.3375 v 0.3375 h 3.8455 V 345.223 h -3.8455 v 8.3927 c -0.0526,1.1386 -0.5792,2.0031 -2.739,2.0031 z m 24.9159,3.0155 v -17.9449 h -3.7138 v 4.85 c -0.7375,-0.2108 -1.5805,-0.3164 -2.4758,-0.3164 h -1.3433 c -3.8191,0 -6.163,1.919 -6.163,4.8921 v 3.606 c 0,2.9733 2.3439,4.9132 6.163,4.9132 z m -7.5329,-3.0365 c -1.3959,0 -2.5282,-0.8224 -2.5282,-1.961 v -3.4372 c 0,-1.1388 1.1323,-1.9611 2.5282,-1.9611 h 1.3433 c 1.3959,0 2.4758,0.8223 2.4758,1.9611 v 5.3982 z m 15.513,-10.3748 h -3.8717 v 13.4113 h 3.8717 z m 0,-4.5336 h -3.8717 v 3.0787 h 3.8717 z m 10.2458,4.5336 c -3.819,0 -6.1631,1.919 -6.1631,4.8921 v 3.606 c 0,2.9733 2.3441,4.9132 6.1631,4.9132 h 1.3431 c 3.8455,0 6.1894,-1.9399 6.1894,-4.9132 v -3.606 c 0,-2.9731 -2.3439,-4.8921 -6.1894,-4.8921 z m 1.3431,3.0155 c 1.3961,0 2.4232,0.8223 2.4232,1.9611 v 3.4372 c 0,1.1386 -1.0271,1.961 -2.4232,1.961 h -1.3431 c -1.3694,0 -2.4231,-0.8224 -2.4231,-1.961 v -3.4372 c 0,-1.1388 1.0537,-1.9611 2.4231,-1.9611 z"
     style="fill:#000000;fill-rule:evenodd"
     id="path46" />
  <path
     d="m 1361.7774,295.1127 h 10e-5 c 3.8443,0 6.9895,1.9518 6.9895,4.3369 v 14.776 c 0,2.3852 -3.1455,4.337 -6.9895,4.337 h -10e-5 c -3.8439,0 -6.9895,-1.9516 -6.9895,-4.337 v -14.776 c 0,-2.3853 3.1452,-4.3369 6.9895,-4.3369 z"
     style="fill:#b1b3b4;fill-rule:evenodd"
     id="path48" />
  <path
     d="m 1334.0034,300.8869 h 2e-4 c 3.8443,0 6.9895,1.9519 6.9895,4.337 v 32.5275 c 0,2.3851 -3.1456,4.337 -6.9895,4.337 h -2e-4 c -3.8439,0 -6.9895,-1.9516 -6.9895,-4.337 v -32.5275 c 0,-2.3854 3.1452,-4.337 6.9895,-4.337 z"
     style="fill:#b1b3b4;fill-rule:evenodd"
     id="path50" />
  <path
     d="m 1306.2293,307.6196 h 10e-5 c 3.8443,0 6.9895,1.9519 6.9895,4.337 v 36.562 c 0,2.3851 -3.1457,4.337 -6.9895,4.337 h -10e-5 c -3.8438,0 -6.9895,-1.9516 -6.9895,-4.337 v -36.562 c 0,-2.3854 3.1452,-4.337 6.9895,-4.337 z"
     style="fill:#b1b3b4;fill-rule:evenodd"
     id="path52" />
  <path
     d="m 1278.4553,313.192 h 2e-4 c 3.8442,0 6.9894,1.9518 6.9894,4.337 v 36.1585 c 0,2.3851 -3.1455,4.3369 -6.9894,4.3369 h -2e-4 c -3.8439,0 -6.9895,-1.9516 -6.9895,-4.3369 V 317.529 c 0,-2.3854 3.1452,-4.337 6.9895,-4.337 z"
     style="fill:#b1b3b4;fill-rule:evenodd"
     id="path54" />
  <path
     d="m 1250.6811,318.109 h 2e-4 c 3.8443,0 6.9895,1.9519 6.9895,4.337 v 31.3173 c 0,2.3851 -3.1456,4.337 -6.9895,4.337 h -2e-4 c -3.8439,0 -6.9894,-1.9516 -6.9894,-4.337 V 322.446 c 0,-2.3854 3.1452,-4.337 6.9894,-4.337 z"
     style="fill:#b1b3b4;fill-rule:evenodd"
     id="path56" />
  <path
     d="m 1223.0478,338.0796 h 2e-4 c 3.8443,0 6.9895,1.9521 6.9895,4.337 v 9.9347 c 0,2.3849 -3.146,4.3369 -6.9895,4.3369 h -2e-4 c -3.8435,0 -6.9895,-1.9516 -6.9895,-4.3369 v -9.9347 c 0,-2.3854 3.1452,-4.337 6.9895,-4.337 z"
     style="fill:#b1b3b4;fill-rule:evenodd"
     id="path58" />
  <path
     d="m 1361.7774,255.3731 h 10e-5 c 3.8443,0 6.9895,1.952 6.9895,4.337 v 24.4587 c 0,2.3851 -3.1457,4.337 -6.9895,4.337 h -10e-5 c -3.8438,0 -6.9895,-1.9516 -6.9895,-4.337 v -24.4587 c 0,-2.3854 3.1452,-4.337 6.9895,-4.337 z"
     style="fill:#000000;fill-rule:evenodd"
     id="path60" />
  <path
     d="m 1334.0034,238.958 h 2e-4 c 3.8443,0 6.9895,1.9519 6.9895,4.337 v 43.6222 c 0,2.385 -3.1458,4.337 -6.9895,4.337 h -2e-4 c -3.8437,0 -6.9895,-1.9516 -6.9895,-4.337 V 243.295 c 0,-2.3854 3.1452,-4.337 6.9895,-4.337 z"
     style="fill:#000000;fill-rule:evenodd"
     id="path62" />
  <path
     d="m 1306.2293,232.7802 h 10e-5 c 3.8443,0 6.9895,1.9521 6.9895,4.337 v 56.9361 c 0,2.3849 -3.1459,4.337 -6.9895,4.337 h -10e-5 c -3.8436,0 -6.9895,-1.9516 -6.9895,-4.337 v -56.9361 c 0,-2.3854 3.1452,-4.337 6.9895,-4.337 z"
     style="fill:#000000;fill-rule:evenodd"
     id="path64" />
  <path
     d="m 1278.4553,230.082 h 2e-4 c 3.8442,0 6.9894,1.9519 6.9894,4.3369 v 66.6188 c 0,2.385 -3.1457,4.3369 -6.9894,4.3369 h -2e-4 c -3.8437,0 -6.9895,-1.9516 -6.9895,-4.3369 v -66.6188 c 0,-2.3853 3.1452,-4.3369 6.9895,-4.3369 z"
     style="fill:#000000;fill-rule:evenodd"
     id="path66" />
  <path
     d="m 1250.6811,231.7715 h 2e-4 c 3.8443,0 6.9895,1.952 6.9895,4.337 v 67.6274 c 0,2.3851 -3.1458,4.337 -6.9895,4.337 h -2e-4 c -3.8437,0 -6.9894,-1.9516 -6.9894,-4.337 v -67.6274 c 0,-2.3854 3.1452,-4.337 6.9894,-4.337 z"
     style="fill:#000000;fill-rule:evenodd"
     id="path68" />
  <path
     d="m 1223.0478,236.0077 h 2e-4 c 3.8443,0 6.9895,1.9522 6.9895,4.3369 v 84.3706 c 0,2.3847 -3.1463,4.337 -6.9895,4.337 h -2e-4 c -3.8432,0 -6.9895,-1.9516 -6.9895,-4.337 v -84.3706 c 0,-2.3854 3.1452,-4.3369 6.9895,-4.3369 z"
     style="fill:#000000;fill-rule:evenodd"
     id="path70" />
  <path
     d="m 1194.699,243.1942 h 2e-4 c 3.8442,0 6.9894,1.9522 6.9894,4.337 v 95.6667 c 0,2.3848 -3.1461,4.337 -6.9894,4.337 h -2e-4 c -3.8434,0 -6.9895,-1.9516 -6.9895,-4.337 v -95.6667 c 0,-2.3854 3.1452,-4.337 6.9895,-4.337 z"
     style="fill:#000000;fill-rule:evenodd"
     id="path72" />
  <path
     d="m 1166.9248,255.3732 h 2e-4 c 3.8443,0 6.9895,1.9523 6.9895,4.337 v 92.036 c 0,2.3847 -3.1463,4.3369 -6.9895,4.3369 h -2e-4 c -3.8431,0 -6.9894,-1.9516 -6.9894,-4.3369 v -92.036 c 0,-2.3854 3.1452,-4.337 6.9894,-4.337 z"
     style="fill:#000000;fill-rule:evenodd"
     id="path74" />
  <path
     d="m 1139.1509,271.2335 h 2e-4 c 3.8442,0 6.9894,1.9521 6.9894,4.337 v 80.1341 c 0,2.3849 -3.1459,4.337 -6.9894,4.337 h -2e-4 c -3.8436,0 -6.9895,-1.9516 -6.9895,-4.337 v -80.1341 c 0,-2.3854 3.1452,-4.337 6.9895,-4.337 z"
     style="fill:#000000;fill-rule:evenodd"
     id="path76" />
  <path
     d="m 1111.3767,282.2023 h 2e-4 c 3.8443,0 6.9895,1.952 6.9895,4.3369 v 78.924 c 0,2.3849 -3.1459,4.3369 -6.9895,4.3369 h -2e-4 c -3.8435,0 -6.9894,-1.9516 -6.9894,-4.3369 v -78.924 c 0,-2.3853 3.1452,-4.3369 6.9894,-4.3369 z"
     style="fill:#000000;fill-rule:evenodd"
     id="path78" />
  <path
     d="m 1083.7434,291.2798 h 2e-4 c 3.8443,0 6.9895,1.9525 6.9895,4.337 v 42.0087 c 0,2.3844 -3.1467,4.3369 -6.9895,4.3369 h -2e-4 c -3.8428,0 -6.9895,-1.9516 -6.9895,-4.3369 v -42.0087 c 0,-2.3854 3.1452,-4.337 6.9895,-4.337 z"
     style="fill:#000000;fill-rule:evenodd"
     id="path80" />
  <path
     d="m 1055.1349,250.33 h 2e-4 c 3.8443,0 6.9894,1.9527 6.9894,4.3369 v 58.55 c 0,2.3843 -3.147,4.337 -6.9894,4.337 h -2e-4 c -3.8424,0 -6.9895,-1.9516 -6.9895,-4.337 v -58.55 c 0,-2.3853 3.1452,-4.3369 6.9895,-4.3369 z"
     style="fill:#000000;fill-rule:evenodd"
     id="path82" />
  <path
     d="m 1026.5697,254.1627 h 2e-4 c 3.8443,0 6.9895,1.9526 6.9895,4.337 v 18.0038 c 0,2.3843 -3.1469,4.3369 -6.9895,4.3369 h -2e-4 c -3.8426,0 -6.9895,-1.9516 -6.9895,-4.3369 v -18.0038 c 0,-2.3854 3.1452,-4.337 6.9895,-4.337 z"
     style="fill:#000000;fill-rule:evenodd"
     id="path84" />
  <path
     d="m 997.9612,251.742 h 2e-4 c 3.8443,0 6.9895,1.9526 6.9895,4.337 v 8.1193 c 0,2.3843 -3.1469,4.3369 -6.9895,4.3369 h -2e-4 c -3.8426,0 -6.9895,-1.9516 -6.9895,-4.3369 v -8.1193 c 0,-2.3854 3.1452,-4.337 6.9895,-4.337 z"
     style="fill:#000000;fill-rule:evenodd"
     id="path86" />
  <path
     d="m 1083.7434,244.8719 h 2e-4 c 3.8443,0 6.9895,1.9526 6.9895,4.337 v 6.1019 c 0,2.3843 -3.1469,4.337 -6.9895,4.337 h -2e-4 c -3.8426,0 -6.9895,-1.9516 -6.9895,-4.337 v -6.1019 c 0,-2.3854 3.1452,-4.337 6.9895,-4.337 z"
     style="fill:#000000;fill-rule:evenodd"
     id="path88" />
  <path
     d="m 897.2875,0.2021 v 595.2756 h 595.2756 V 0.2021 Z"
     style="fill:none"
     id="path90" />
</svg>
